<svg width="27" height="24" viewBox="0 0 27 24" fill="none" xmlns="http://www.w3.org/2000/svg">
<path d="M0.25 0V20.2126H8.67522V21.6579H7.13529V23.1008H19.6147V21.6579H18.0747V20.2126H26.5V0H0.25ZM16.5365 21.6579H10.2134V20.2126H16.5366V21.6579H16.5365ZM24.9619 18.7697H1.78814V15.8804H24.9618V18.7697H24.9619ZM24.9619 14.4375H1.78814V1.44297H24.9618V14.4375H24.9619Z" fill="black"/>
<path d="M10.7061 5.33219L9.61846 4.31189L5.75073 7.94018L9.61846 11.5684L10.7061 10.5481L7.926 7.94018L10.7061 5.33219Z" fill="black"/>
<path d="M17.1316 4.31189L16.0439 5.33219L18.824 7.94018L16.0439 10.5481L17.1316 11.5684L20.9992 7.94018L17.1316 4.31189Z" fill="black"/>
<path d="M13.5135 3.58937L11.7279 12.0101L13.2366 12.2917L15.0221 3.87089L13.5135 3.58937Z" fill="black"/>
</svg>
